<svg xmlns="http://www.w3.org/2000/svg"
    xmlns:xlink="http://www.w3.org/1999/xlink" fill="none" version="1.1" width="216.67626953125" height="216.67617797851562" viewBox="0 0 216.67626953125 216.67617797851562">
    <defs>
        <clipPath id="master_svg1_35_3057">
            <rect x="15" y="104.33809661865234" width="132" height="132" rx="10"/>
        </clipPath>
        <clipPath id="master_svg2_35_3058">
            <rect x="21" y="110.33809661865234" width="120" height="120" rx="5"/>
        </clipPath>
        <clipPath id="master_svg3_35_3073">
            <rect x="27" y="116.33809661865234" width="32" height="32" rx="2.5"/>
        </clipPath>
        <clipPath id="master_svg4_35_3062">
            <rect x="65" y="116.33809661865234" width="32" height="32" rx="2.5"/>
        </clipPath>
        <clipPath id="master_svg5_35_3063">
            <rect x="81" y="121.02364349365234" width="16" height="16" rx="0"/>
        </clipPath>
        <clipPath id="master_svg6_35_3069">
            <rect x="103" y="116.33809661865234" width="32" height="32" rx="2.5"/>
        </clipPath>
        <clipPath id="master_svg7_35_3072">
            <rect x="27" y="154.33809661865234" width="32" height="32" rx="2.5"/>
        </clipPath>
        <clipPath id="master_svg8_35_3070">
            <rect x="103" y="154.33809661865234" width="32" height="32" rx="2.5"/>
        </clipPath>
        <clipPath id="master_svg9_35_3059">
            <rect x="65" y="154.33809661865234" width="32" height="32" rx="2.5"/>
        </clipPath>
        <clipPath id="master_svga_35_3068">
            <rect x="27" y="192.33809661865234" width="32" height="32" rx="2.5"/>
        </clipPath>
        <clipPath id="master_svgb_35_3065">
            <rect x="65" y="192.33809661865234" width="32" height="32" rx="2.5"/>
        </clipPath>
        <clipPath id="master_svgc_35_3066">
            <rect x="80.9998779296875" y="197.02376556396484" width="16" height="16" rx="0"/>
        </clipPath>
        <clipPath id="master_svgd_35_3071">
            <rect x="103" y="192.33809661865234" width="32" height="32" rx="2.5"/>
        </clipPath>
        <clipPath id="master_svge_35_3061">
            <rect x="27" y="186.33809661865234" width="70" height="6" rx="2.5"/>
        </clipPath>
        <clipPath id="master_svgf_35_3060">
            <rect x="65" y="148.33809661865234" width="70" height="6" rx="2.5"/>
        </clipPath>
        <clipPath id="master_svgg_35_3074">
            <rect x="81.3536376953125" y="136.75045013427734" width="48" height="48" rx="0"/>
        </clipPath>
    </defs>
    <g>
        <g transform="matrix(0.7071067690849304,-0.7071067690849304,0.7071067690849304,0.7071067690849304,-69.38477592876052,41.16652376243974)" clip-path="url(#master_svg1_35_3057)">
            <rect x="15" y="104.33809661865234" width="132" height="132" rx="10" fill="#6B3136" fill-opacity="1"/>
            <g clip-path="url(#master_svg2_35_3058)">
                <rect x="21" y="110.33809661865234" width="120" height="120" rx="5" fill="#FFFFF8" fill-opacity="1"/>
                <g clip-path="url(#master_svg3_35_3073)">
                    <rect x="27" y="116.33809661865234" width="32" height="32" rx="2.5" fill="#EDEDED" fill-opacity="1"/>
                </g>
                <g clip-path="url(#master_svg4_35_3062)">
                    <rect x="65" y="116.33809661865234" width="32" height="32" rx="2.5" fill="#EDEDED" fill-opacity="1"/>
                    <g transform="matrix(0.7071067094802856,0.7071067094802856,-0.7071067094802856,0.7071067094802856,109.30098685220855,-21.828630294362483)" clip-path="url(#master_svg5_35_3063)">
                        <g>
                            <path d="M92.99998649414063,125.02364349365234C92.99998649414063,127.00497349365234,91.55732649414063,128.64564349365236,89.66665649414062,128.96364349365234L89.66665649414062,134.35694349365235L88.33332649414062,134.35694349365235L88.33332649414062,128.96431349365236C86.44265649414062,128.64631349365234,84.99998649414063,127.00564349365234,84.99998649414063,125.02364349365234C84.99998649414063,122.81431349365235,86.79132649414062,121.02364349365234,88.99998649414063,121.02364349365234C91.20865649414063,121.02364349365234,92.99998649414063,122.81497349365235,92.99998649414063,125.02364349365234ZM91.66665649414062,125.02364349365234C91.66665649414062,123.55297349365235,90.47065649414063,122.35697349365235,88.99998649414063,122.35697349365235C87.52932649414062,122.35697349365235,86.33332649414062,123.55297349365235,86.33332649414062,125.02364349365234C86.33332649414062,126.49431349365234,87.52932649414062,127.69031349365234,88.99998649414063,127.69031349365234C90.47065649414063,127.69031349365234,91.66665649414062,126.49431349365234,91.66665649414062,125.02364349365234ZM87.92132649414063,126.42231349365234C89.48065649414062,127.64897349365235,91.62998649414062,125.94097349365234,90.49332649414063,124.06297349365235C90.70198649414063,125.55431349365234,89.18932649414063,126.74964349365234,87.92132649414063,126.42231349365234ZM90.99998649414063,131.88564349365234L90.99998649414063,133.25364349365233L91.29198649414063,133.32494349365234C92.42932649414062,133.65364349365234,92.95599649414062,134.00964349365233,92.96332649414063,134.35634349365233C92.95599649414062,134.70294349365236,92.42932649414062,135.05894349365235,91.29198649414063,135.38764349365235C89.89398649414062,135.79164349365234,88.10132649414062,135.79034349365236,86.70932649414063,135.38834349365234C85.57932649414063,135.06234349365235,85.03265649414062,134.70764349365234,85.03265649414062,134.35694349365235C85.03265649414062,134.00634349365234,85.57932649414063,133.65164349365233,86.70998649414062,133.32494349365234L87.00065649414063,133.25434349365236L87.00065649414063,131.88634349365233C85.04598649414062,132.28164349365235,83.66665649414062,133.23834349365234,83.66665649414062,134.35694349365235C83.66665649414062,135.82964349365236,86.05398649414063,137.02364349365234,88.99998649414063,137.02364349365234C91.94598649414063,137.02364349365234,94.33335649414063,135.82964349365236,94.33335649414063,134.35694349365235C94.33335649414063,133.23834349365234,92.95398649414062,132.28164349365235,90.99998649414063,131.88564349365234Z" fill="#000000" fill-opacity="1" style="mix-blend-mode:passthrough"/>
                        </g>
                    </g>
                </g>
                <g clip-path="url(#master_svg6_35_3069)">
                    <rect x="103" y="116.33809661865234" width="32" height="32" rx="2.5" fill="#EDEDED" fill-opacity="1"/>
                </g>
                <g clip-path="url(#master_svg7_35_3072)">
                    <rect x="27" y="154.33809661865234" width="32" height="32" rx="2.5" fill="#EDEDED" fill-opacity="1"/>
                </g>
                <g clip-path="url(#master_svg8_35_3070)">
                    <rect x="103" y="154.33809661865234" width="32" height="32" rx="2.5" fill="#EDEDED" fill-opacity="1"/>
                </g>
                <g clip-path="url(#master_svg9_35_3059)">
                    <rect x="65" y="154.33809661865234" width="32" height="32" rx="2.5" fill="#EDEDED" fill-opacity="1"/>
                </g>
                <g clip-path="url(#master_svga_35_3068)">
                    <rect x="27" y="192.33809661865234" width="32" height="32" rx="2.5" fill="#EDEDED" fill-opacity="1"/>
                </g>
                <g clip-path="url(#master_svgb_35_3065)">
                    <rect x="65" y="192.33809661865234" width="32" height="32" rx="2.5" fill="#EDEDED" fill-opacity="1"/>
                    <g transform="matrix(0.7071067094802856,0.7071067094802856,-0.7071067094802856,0.7071067094802856,163.04114733587176,0.43138185544830776)" clip-path="url(#master_svgc_35_3066)">
                        <g>
                            <path d="M88.99989494140625,197.02376556396484C86.79123494140624,197.02376556396484,84.99989494140625,198.81509556396483,84.99989494140625,201.02376556396484C84.99989494140625,203.00509556396486,86.44256494140625,204.64576556396486,88.33323494140625,204.96376556396484L88.33323494140625,210.35706556396485L89.66656494140625,210.35706556396485L89.66656494140625,204.96443556396486C91.55723494140625,204.64643556396484,92.99989494140625,203.00576556396484,92.99989494140625,201.02443556396486C92.99989494140625,198.81509556396483,91.20856494140625,197.02376588185584,88.99989494140625,197.02376556396484ZM88.52856494140624,200.02909556396483C88.16256494140625,200.46243556396485,87.57989494140625,200.56243556396484,87.22656494140625,200.25109556396484C86.87323494140625,199.93976556396484,86.88256494140624,199.33643556396484,87.24923494140624,198.90309556396485C87.61456494140624,198.46976556396484,88.19723494140625,198.37043556396483,88.55056494140625,198.68109556396485C88.90389494140625,198.99243556396485,88.89389494140624,199.59576556396485,88.52856494140624,200.02909556396483ZM94.33326494140626,210.35706556396485C94.33326494140626,211.82976556396486,91.94589494140625,213.02376556396484,88.99989494140625,213.02376556396484C86.05389494140626,213.02376556396484,83.66656494140625,211.82976556396486,83.66656494140625,210.35706556396485C83.66656494140625,209.23846556396484,85.04589494140625,208.28176556396485,86.99989494140625,207.88576556396484L86.99989494140625,209.25376556396483L86.70923494140625,209.32446556396485C85.57923494140626,209.65176556396483,85.03189494140625,210.00646556396484,85.03189494140625,210.35706556396485C85.03189494140625,210.70776556396484,85.57856494140626,211.06246556396485,86.70923494140625,211.38906556396483C88.10123494140625,211.79106556396485,89.89389494140624,211.79246556396484,91.29189494140626,211.38846556396484C92.42923494140625,211.05976556396485,92.95589494140626,210.70376556396485,92.96323494140626,210.35706556396485C92.95589494140626,210.01046556396486,92.42923494140625,209.65446556396483,91.29189494140626,209.32576556396484L90.99989494140625,209.25446556396486L90.99989494140625,207.88646556396483C92.95389494140625,208.28176556396485,94.33326494140626,209.23846556396484,94.33326494140626,210.35706556396485Z" fill="#000000" fill-opacity="1" style="mix-blend-mode:passthrough"/>
                        </g>
                    </g>
                </g>
                <g clip-path="url(#master_svgd_35_3071)">
                    <rect x="103" y="192.33809661865234" width="32" height="32" rx="2.5" fill="#EDEDED" fill-opacity="1"/>
                </g>
                <g clip-path="url(#master_svge_35_3061)">
                    <rect x="27" y="186.33809661865234" width="70" height="6" rx="2.5" fill="#FF7F50" fill-opacity="1"/>
                </g>
                <g clip-path="url(#master_svgf_35_3060)">
                    <rect x="65" y="148.33809661865234" width="70" height="6" rx="2.5" fill="#FF7F50" fill-opacity="1"/>
                </g>
                <g transform="matrix(0.7071067690849304,0.7071067690849304,-0.7071067690849304,0.7071067690849304,120.52509875663281,-17.472426735119825)" clip-path="url(#master_svgg_35_3074)">
                    <g>
                        <path d="M93.3536376953125,180.75048065185547C93.3536376953125,180.75048065185547,93.3536376953125,172.15048065185547,93.3536376953125,172.15048065185547C91.4536376953125,170.41718065185546,89.9786376953125,168.39218065185548,88.9286376953125,166.07548065185546C87.8786376953125,163.75878065185546,87.3536376953125,161.31718065185547,87.3536376953125,158.75048065185547C87.3536376953125,153.75048065185547,89.1036376953125,149.50048065185547,92.6036376953125,146.00048065185547C96.1036376953125,142.50048065185547,100.3536376953125,140.75048065185547,105.3536376953125,140.75048065185547C109.52033769531249,140.75048065185547,113.2119376953125,141.97548065185546,116.4286376953125,144.42548065185548C119.64533769531249,146.87548065185547,121.73693769531249,150.06715065185546,122.7036376953125,154.00048065185547C122.7036376953125,154.00048065185547,125.3036376953125,164.25048065185547,125.3036376953125,164.25048065185547C125.47033769531251,164.88378065185546,125.3536376953125,165.45878065185548,124.9536376953125,165.97548065185546C124.5536376953125,166.49218065185548,124.02033769531249,166.75048065185547,123.3536376953125,166.75048065185547C123.3536376953125,166.75048065185547,119.3536376953125,166.75048065185547,119.3536376953125,166.75048065185547C119.3536376953125,166.75048065185547,119.3536376953125,172.75048065185547,119.3536376953125,172.75048065185547C119.3536376953125,173.85048065185546,118.9619376953125,174.79218065185546,118.1786376953125,175.57548065185546C117.39533769531249,176.35878065185545,116.4536376953125,176.75048065185547,115.3536376953125,176.75048065185547C115.3536376953125,176.75048065185547,111.3536376953125,176.75048065185547,111.3536376953125,176.75048065185547C111.3536376953125,176.75048065185547,111.3536376953125,180.75048065185547,111.3536376953125,180.75048065185547C111.3536376953125,180.75048065185547,93.3536376953125,180.75048065185547,93.3536376953125,180.75048065185547ZM103.3536376953125,164.75048065185547C103.3536376953125,164.75048065185547,107.3536376953125,164.75048065185547,107.3536376953125,164.75048065185547C107.3536376953125,164.75048065185547,107.3536376953125,150.75048065185547,107.3536376953125,150.75048065185547C107.3536376953125,150.75048065185547,103.3536376953125,150.75048065185547,103.3536376953125,150.75048065185547C103.3536376953125,150.75048065185547,103.3536376953125,164.75048065185547,103.3536376953125,164.75048065185547ZM109.3536376953125,161.75048065185547C109.3536376953125,161.75048065185547,113.3536376953125,161.75048065185547,113.3536376953125,161.75048065185547C113.3536376953125,161.75048065185547,113.3536376953125,152.75048065185547,113.3536376953125,152.75048065185547C113.3536376953125,152.75048065185547,109.3536376953125,152.75048065185547,109.3536376953125,152.75048065185547C109.3536376953125,152.75048065185547,109.3536376953125,161.75048065185547,109.3536376953125,161.75048065185547ZM97.3536376953125,160.75048065185547C97.3536376953125,160.75048065185547,101.3536376953125,160.75048065185547,101.3536376953125,160.75048065185547C101.3536376953125,160.75048065185547,101.3536376953125,152.75048065185547,101.3536376953125,152.75048065185547C101.3536376953125,152.75048065185547,97.3536376953125,152.75048065185547,97.3536376953125,152.75048065185547C97.3536376953125,152.75048065185547,97.3536376953125,160.75048065185547,97.3536376953125,160.75048065185547Z" fill="#000000" fill-opacity="1"/>
                    </g>
                </g>
            </g>
        </g>
    </g>
</svg>