<svg xmlns="http://www.w3.org/2000/svg"
    xmlns:xlink="http://www.w3.org/1999/xlink" fill="none" version="1.1" width="16" height="16" viewBox="0 0 16 16">
    <defs>
        <clipPath id="master_svg0_1_204829">
            <rect x="0" y="0" width="16" height="16" rx="0"/>
        </clipPath>
    </defs>
    <g clip-path="url(#master_svg0_1_204829)">
        <g>
            <path d="M8.00001701171875,0C5.79135701171875,0,4.00001701171875,1.79133,4.00001701171875,4C4.00001701171875,5.98133,5.44268701171875,7.622,7.33335701171875,7.94L7.33335701171875,13.3333L8.66668701171875,13.3333L8.66668701171875,7.94067C10.55735701171875,7.62267,12.00001701171875,5.982,12.00001701171875,4.00067C12.00001701171875,1.79133,10.20868701171875,3.17891e-7,8.00001701171875,0ZM7.52868701171875,3.00533C7.16268701171875,3.43867,6.58001701171875,3.53867,6.2266870117187505,3.22733C5.87335701171875,2.916,5.88268701171875,2.31267,6.24935701171875,1.87933C6.61468701171875,1.446,7.19735701171875,1.34667,7.55068701171875,1.65733C7.90401701171875,1.96867,7.89401701171875,2.572,7.52868701171875,3.00533ZM13.33338701171875,13.3333C13.33338701171875,14.806,10.94601701171875,16,8.00001701171875,16C5.05401701171875,16,2.66668701171875,14.806,2.66668701171875,13.3333C2.66668701171875,12.2147,4.0460170117187495,11.258,6.00001701171875,10.862L6.00001701171875,12.23L5.70935701171875,12.3007C4.57935701171875,12.628,4.03201701171875,12.9827,4.03201701171875,13.3333C4.03201701171875,13.684,4.57868701171875,14.0387,5.70935701171875,14.3653C7.10135701171875,14.7673,8.89401701171875,14.7687,10.29201701171875,14.3647C11.42935701171875,14.036,11.95601701171875,13.68,11.96335701171875,13.3333C11.95601701171875,12.9867,11.42935701171875,12.6307,10.29201701171875,12.302L10.00001701171875,12.2307L10.00001701171875,10.8627C11.95401701171875,11.258,13.33338701171875,12.2147,13.33338701171875,13.3333Z" fill="#000000" fill-opacity="1" style="mix-blend-mode:passthrough"/>
        </g>
    </g>
</svg>