<svg xmlns="http://www.w3.org/2000/svg"
    xmlns:xlink="http://www.w3.org/1999/xlink" fill="none" version="1.1" width="15.999999046325684" height="15.999999046325684" viewBox="0 0 15.999999046325684 15.999999046325684">
    <defs>
        <clipPath id="master_svg0_77_1049">
            <rect x="0" y="15.999999046325684" width="16" height="16" rx="0"/>
        </clipPath>
    </defs>
    <g transform="matrix(0,-0.9999999403953552,0.9999999403953552,0,-15.999998092651424,15.999999046325684)" clip-path="url(#master_svg0_77_1049)">
        <g>
            <path d="M1.33935546875,24.001338968200685C1.33935546875,20.323338968200684,4.32602546875,17.336668968200684,8.00468546875,17.336668968200684C11.68335546875,17.336668968200684,14.67005546875,20.323338968200684,14.67005546875,24.001338968200685C14.67005546875,27.679968968200683,11.68335546875,30.666668968200682,8.00468546875,30.666668968200682C4.32602546875,30.666668968200682,1.339355945587,27.679968968200683,1.33935546875,24.001338968200685ZM6.81335546875,20.772668968200684C6.71935546875,20.700668968200684,6.61335546875,20.667998968200685,6.50935546875,20.667998968200685C6.25002546875,20.667998968200685,6.00602546875,20.871998968200685,6.00602546875,21.167338968200685L6.00602546875,26.83466896820068C6.00602546875,27.131338968200684,6.25068546875,27.33466896820068,6.50935546875,27.33466896820068C6.61402546875,27.33466896820068,6.72002546875,27.30133896820068,6.81402546875,27.228668968200683C7.85002546875,26.426668968200683,9.61335546875,25.060668968200684,10.47935546875,24.389998968200683C10.60202546875,24.29533896820068,10.67268546875,24.149998968200684,10.67268546875,23.995338968200684C10.67268546875,23.841998968200684,10.60135546875,23.695998968200684,10.47868546875,23.601338968200682L6.81335546875,20.772668968200684Z" fill="#000000" fill-opacity="1" style="mix-blend-mode:passthrough"/>
        </g>
    </g>
</svg>