<svg xmlns="http://www.w3.org/2000/svg"
    xmlns:xlink="http://www.w3.org/1999/xlink" fill="none" version="1.1" width="16" height="16" viewBox="0 0 16 16">
    <defs>
        <clipPath id="master_svg0_1_204872">
            <rect x="0" y="0" width="16" height="16" rx="0"/>
        </clipPath>
    </defs>
    <g clip-path="url(#master_svg0_1_204872)">
        <g>
            <path d="M11.999986494140625,4C11.999986494140625,5.98133,10.557326494140625,7.622,8.666656494140625,7.94L8.666656494140625,13.3333L7.333326494140625,13.3333L7.333326494140625,7.94067C5.442656494140625,7.62267,3.999986494140625,5.982,3.999986494140625,4C3.999986494140625,1.79067,5.791326494140625,0,7.999986494140625,0C10.208656494140625,0,11.999986494140625,1.79133,11.999986494140625,4ZM10.666656494140625,4C10.666656494140625,2.52933,9.470656494140625,1.33333,7.999986494140625,1.33333C6.529326494140625,1.33333,5.333326494140625,2.52933,5.333326494140625,4C5.333326494140625,5.47067,6.529326494140625,6.66667,7.999986494140625,6.66667C9.470656494140625,6.66667,10.666656494140625,5.47067,10.666656494140625,4ZM6.921326494140625,5.39867C8.480656494140625,6.62533,10.629986494140624,4.91733,9.493326494140625,3.03933C9.701986494140625,4.53067,8.189326494140625,5.726,6.921326494140625,5.39867ZM9.999986494140625,10.862L9.999986494140625,12.23L10.291986494140625,12.3013C11.429326494140625,12.63,11.955996494140624,12.986,11.963326494140626,13.3327C11.955996494140624,13.6793,11.429326494140625,14.0353,10.291986494140625,14.364C8.893986494140625,14.768,7.101326494140625,14.7667,5.709326494140625,14.3647C4.579326494140625,14.0387,4.032656494140625,13.684,4.032656494140625,13.3333C4.032656494140625,12.9827,4.579326494140625,12.628,5.709986494140625,12.3013L6.000656494140625,12.2307L6.000656494140625,10.8627C4.0459864941406245,11.258,2.666656494140625,12.2147,2.666656494140625,13.3333C2.666656494140625,14.806,5.053986494140625,16,7.999986494140625,16C10.945986494140625,16,13.333356494140626,14.806,13.333356494140626,13.3333C13.333356494140626,12.2147,11.953986494140626,11.258,9.999986494140625,10.862Z" fill="#000000" fill-opacity="1" style="mix-blend-mode:passthrough"/>
        </g>
    </g>
</svg>